<svg width="30" height="32" viewBox="0 0 30 32" fill="none" xmlns="http://www.w3.org/2000/svg">
<path d="M6.43402 25.0887C8.19171 24.0103 9.98993 23.1694 11.8287 22.5662C13.6675 21.9629 15.6505 21.6613 17.7778 21.6613C19.905 21.6613 21.8912 21.9629 23.7363 22.5662C25.5815 23.1694 27.3829 24.0103 29.1405 25.0887C30.4218 23.8168 31.3926 22.4364 32.0531 20.9476C32.7135 19.4588 33.0437 17.8601 33.0437 16.1513C33.0437 12.4264 31.5695 9.28108 28.6212 6.71548C25.6729 4.14988 22.0584 2.86707 17.7778 2.86707C13.4972 2.86707 9.88268 4.14988 6.93435 6.71548C3.98601 9.28108 2.51185 12.4264 2.51185 16.1513C2.51185 17.8601 2.84523 19.4588 3.51199 20.9476C4.17875 22.4364 5.15276 23.8168 6.43402 25.0887ZM17.7712 17.1636C16.0979 17.1636 14.689 16.6638 13.5447 15.6642C12.4003 14.6647 11.8281 13.4368 11.8281 11.9806C11.8281 10.5245 12.4025 9.29849 13.5512 8.30269C14.6999 7.30689 16.1109 6.80899 17.7843 6.80899C19.4577 6.80899 20.8666 7.30878 22.0109 8.30837C23.1552 9.30793 23.7274 10.5358 23.7274 11.992C23.7274 13.4481 23.1531 14.6741 22.0044 15.6699C20.8557 16.6657 19.4446 17.1636 17.7712 17.1636ZM17.7922 31.4601C15.3522 31.4601 13.0632 31.0603 10.9252 30.2608C8.78716 29.4613 6.92206 28.368 5.3299 26.9811C3.73774 25.5941 2.48226 23.9733 1.56347 22.1184C0.64464 20.2636 0.185226 18.2739 0.185226 16.1493C0.185226 14.0248 0.64464 12.0357 1.56347 10.1822C2.48226 8.32868 3.73859 6.70846 5.33245 5.32153C6.92628 3.93457 8.78896 2.84133 10.9205 2.04181C13.052 1.24225 15.3386 0.842476 17.78 0.842476C20.2216 0.842476 22.5073 1.24225 24.6373 2.04181C26.7673 2.84133 28.6293 3.93457 30.2231 5.32153C31.817 6.70846 33.0733 8.32897 33.9921 10.1831C34.9109 12.0371 35.3703 14.0224 35.3703 16.1387C35.3703 18.262 34.9109 20.2538 33.9921 22.1143C33.0733 23.9748 31.817 25.5978 30.2231 26.9833C28.6293 28.3688 26.767 29.4613 24.6363 30.2608C22.5057 31.0603 20.2243 31.4601 17.7922 31.4601ZM17.7778 29.4355C19.4824 29.4355 21.1513 29.1988 22.7843 28.7253C24.4174 28.2519 25.9275 27.5203 27.3149 26.5307C25.9275 25.63 24.43 24.9306 22.8223 24.4327C21.2146 23.9348 19.5331 23.6859 17.7778 23.6859C16.0225 23.6859 14.338 23.9322 12.7243 24.425C11.1107 24.9177 9.62009 25.6196 8.25259 26.5307C9.63197 27.5203 11.1382 28.2519 12.7712 28.7253C14.4043 29.1988 16.0731 29.4355 17.7778 29.4355ZM17.7794 15.139C18.8246 15.139 19.6894 14.8407 20.3739 14.244C21.0585 13.6474 21.4008 12.8943 21.4008 11.9849C21.4008 11.0754 21.058 10.3228 20.3723 9.72714C19.6866 9.13144 18.8212 8.83358 17.7761 8.83358C16.731 8.83358 15.8662 9.13192 15.1816 9.72859C14.497 10.3252 14.1548 11.0783 14.1548 11.9877C14.1548 12.8972 14.4976 13.6498 15.1832 14.2455C15.8689 14.8412 16.7343 15.139 17.7794 15.139Z" fill="white" fill-opacity="0.75"/>
</svg>
